<svg width="1200" height="630" viewBox="0 0 1200 630" fill="none" xmlns="http://www.w3.org/2000/svg">
  <rect width="1200" height="630" fill="#F4F0DF"/>
  <g opacity="0.52">
    <path d="M0 90H1200M0 180H1200M0 270H1200M0 360H1200M0 450H1200M0 540H1200" stroke="#10160F" stroke-opacity="0.08"/>
    <path d="M90 0V630M180 0V630M270 0V630M360 0V630M450 0V630M540 0V630M630 0V630M720 0V630M810 0V630M900 0V630M990 0V630M1080 0V630" stroke="#10160F" stroke-opacity="0.08"/>
  </g>
  <circle cx="144" cy="82" r="46" fill="#66FF70"/>
  <text x="144" y="92" text-anchor="middle" font-family="Arial, sans-serif" font-size="24" font-weight="900" fill="#070A07">PP</text>
  <text x="212" y="93" font-family="Arial, sans-serif" font-size="36" font-weight="900" letter-spacing="-2" fill="#10160F">PolicyPool</text>
  <text x="74" y="184" font-family="Arial, sans-serif" font-size="18" font-weight="900" letter-spacing="5" fill="#14391B">UNISWAP V4 HOOK · X LAYER MAINNET</text>
  <text x="72" y="288" font-family="Arial, sans-serif" font-size="82" font-weight="900" letter-spacing="-6" fill="#10160F">When policy</text>
  <text x="72" y="374" font-family="Arial, sans-serif" font-size="82" font-weight="900" letter-spacing="-6" fill="#10160F">bends, LPs</text>
  <text x="72" y="460" font-family="Arial, sans-serif" font-size="82" font-weight="900" letter-spacing="-6" fill="#10160F">get paid.</text>
  <text x="78" y="518" font-family="Arial, sans-serif" font-size="28" font-weight="500" letter-spacing="-1" fill="#65705F">Refuse over-cap swaps, or accept only after</text>
  <text x="78" y="554" font-family="Arial, sans-serif" font-size="28" font-weight="500" letter-spacing="-1" fill="#65705F">the trusted router donates to LPs.</text>
  <rect x="694" y="118" width="430" height="404" rx="38" fill="#070A07"/>
  <rect x="724" y="148" width="370" height="110" rx="24" fill="#151B13" stroke="#F4F0DF" stroke-opacity="0.12"/>
  <text x="756" y="202" font-family="Courier New, monospace" font-size="18" font-weight="700" letter-spacing="4" fill="#FFFBEA" fill-opacity="0.74">SAME ORDER</text>
  <text x="1054" y="222" text-anchor="end" font-family="Arial, sans-serif" font-size="48" font-weight="900" letter-spacing="-3" fill="#FFFBEA">5,000</text>
  <text x="1054" y="254" text-anchor="end" font-family="Arial, sans-serif" font-size="28" font-weight="900" letter-spacing="-1" fill="#FFFBEA">mUSDC</text>
  <path d="M742 315H1080" stroke="#66FF70" stroke-opacity="0.5"/>
  <rect x="844" y="294" width="132" height="42" rx="21" fill="#070A07" stroke="#66FF70" stroke-opacity="0.4"/>
  <text x="910" y="321" text-anchor="middle" font-family="Courier New, monospace" font-size="15" font-weight="900" letter-spacing="3" fill="#66FF70">BEFORESWAP</text>
  <rect x="724" y="360" width="370" height="86" rx="25" fill="#263216" stroke="#C8FF5C" stroke-opacity="0.5"/>
  <text x="752" y="412" font-family="Courier New, monospace" font-size="16" font-weight="900" letter-spacing="4" fill="#FFFBEA" fill-opacity="0.82">SURGE</text>
  <text x="1054" y="412" text-anchor="end" font-family="Arial, sans-serif" font-size="36" font-weight="900" letter-spacing="-2" fill="#66FF70">40 mUSDC</text>
  <rect x="724" y="464" width="178" height="58" rx="21" fill="#0E3716" stroke="#66FF70" stroke-opacity="0.55"/>
  <text x="752" y="501" font-family="Arial, sans-serif" font-size="30" font-weight="900" letter-spacing="-2" fill="#66FF70">Accepted</text>
  <rect x="920" y="464" width="178" height="58" rx="21" fill="#3A1518" stroke="#FF5268" stroke-opacity="0.65"/>
  <text x="948" y="501" font-family="Arial, sans-serif" font-size="30" font-weight="900" letter-spacing="-2" fill="#FF6678">Refused</text>
  <rect x="74" y="558" width="172" height="40" rx="20" fill="#FFFBEA" stroke="#10160F" stroke-opacity="0.12"/>
  <text x="160" y="584" text-anchor="middle" font-family="Courier New, monospace" font-size="16" font-weight="900" letter-spacing="2" fill="#14391B">2 HOOKS</text>
  <rect x="262" y="558" width="198" height="40" rx="20" fill="#FFFBEA" stroke="#10160F" stroke-opacity="0.12"/>
  <text x="361" y="584" text-anchor="middle" font-family="Courier New, monospace" font-size="16" font-weight="900" letter-spacing="2" fill="#14391B">3 V4 POOLS</text>
  <rect x="476" y="558" width="236" height="40" rx="20" fill="#FFFBEA" stroke="#10160F" stroke-opacity="0.12"/>
  <text x="594" y="584" text-anchor="middle" font-family="Courier New, monospace" font-size="16" font-weight="900" letter-spacing="2" fill="#14391B">7 LIVE PROOF TXS</text>
</svg>
